<?xml version="1.0" standalone="no"?><!DOCTYPE svg PUBLIC "-//W3C//DTD SVG 1.1//EN" "http://www.w3.org/Graphics/SVG/1.1/DTD/svg11.dtd"><svg t="1695215467718" class="icon" viewBox="0 0 1141 1024" version="1.1" xmlns="http://www.w3.org/2000/svg" p-id="1528" xmlns:xlink="http://www.w3.org/1999/xlink" width="222.8515625" height="200"><path d="M1120.748023 454.992369a37.986376 37.986376 0 0 0-37.986375 0l-206.814713 116.069481v-17.726975c2.110354-55.29128 5.486921-124.088828-42.207085-155.32207a222.431334 222.431334 0 0 0-126.621252-19.83733h-33.343597a126.621253 126.621253 0 0 0 59.93406-92.011444 33.765667 33.765667 0 0 0 0-11.817983 37.142234 37.142234 0 0 0 0-11.395913 119.868119 119.868119 0 0 0-119.023978-106.783923A113.959128 113.959128 0 0 0 508.323231 227.496184a141.393732 141.393732 0 0 1 0-15.19455 38.830518 38.830518 0 0 0 0-9.707629 32.921526 32.921526 0 0 0 0-9.285559A207.236784 207.236784 0 0 0 307.83958 0a204.282288 204.282288 0 0 0-203.860217 203.016075A191.198092 191.198092 0 0 0 209.497074 379.863758H145.342306C86.252388 379.863758 15.766557 390.41553 5.214786 479.894548A849.206536 849.206536 0 0 0 1.838219 612.002722V872.842503a193.730517 193.730517 0 0 0 3.798638 73.018256c24.90218 69.219618 84.414169 77.661035 142.237874 77.661035h617.067572a32.499455 32.499455 0 0 0 9.285559 0 34.187738 34.187738 0 0 0 11.395912 0c84.414169-15.19455 90.32316-84.414169 90.323161-155.744141v-18.993188l207.236783 115.647411A38.830518 38.830518 0 0 0 1141.429495 928.555854V487.913894a37.142234 37.142234 0 0 0-18.571117-32.499455z m-56.979563 96.654223v312.754494l-78.083106-42.207084-93.699727-53.602997v-119.86812zM562.770369 379.863758H412.091078a219.054767 219.054767 0 0 0 84.414169-109.316348 26.590463 26.590463 0 0 0 0 4.642779A110.582561 110.582561 0 0 0 562.770369 379.863758z m10.129701-104.673569a36.298092 36.298092 0 0 1 36.720163-42.207084h2.954496a42.207084 42.207084 0 0 1 44.739509 42.207084 42.207084 42.207084 0 0 1-84.414168 0zM293.067101 80.19346a126.621253 126.621253 0 0 1 142.237874 122.400545 126.621253 126.621253 0 0 1-126.621253 123.666756 126.621253 126.621253 0 0 1-126.621253-123.666756v-3.376567A111.848773 111.848773 0 0 1 293.067101 80.19346z m506.485011 747.487463c3.376567 42.207084 9.285559 113.959128-28.278746 119.868119H120.862197a35.453951 35.453951 0 0 1-28.278747-10.551771c-18.571117-19.83733-15.616621-63.310626-13.506266-94.543869v-361.714712A22.369755 22.369755 0 0 1 86.252388 464.277927a52.758855 52.758855 0 0 1 36.298092-8.019346h649.989098a19.83733 19.83733 0 0 1 15.194551 6.753134c18.571117 19.415259 14.350409 78.083106 11.817983 105.939781v239.736239a94.543869 94.543869 0 0 0 0 19.837329z m0 0" fill="#858585" p-id="1529"></path></svg>