<?xml version="1.0" standalone="no"?><!DOCTYPE svg PUBLIC "-//W3C//DTD SVG 1.1//EN" "http://www.w3.org/Graphics/SVG/1.1/DTD/svg11.dtd"><svg t="1694168039528" class="icon" viewBox="0 0 1024 1024" version="1.1" xmlns="http://www.w3.org/2000/svg" p-id="17725" xmlns:xlink="http://www.w3.org/1999/xlink" width="32" height="32"><path d="M837.248 670.656V360.512a100.8 100.8 0 0 0-34.176-195.52c-45.312 0-83.2 30.144-95.872 71.36H317.248a100.416 100.416 0 0 0-96-71.36A100.864 100.864 0 0 0 181.12 358.4v314.368a100.8 100.8 0 0 0 40.128 193.408 100.48 100.48 0 0 0 96.704-73.664h388.544a100.48 100.48 0 0 0 197.44-27.264c0-43.712-27.84-80.512-66.688-94.592z m-608.128-5.44V366.08a100.48 100.48 0 0 0 91.2-81.728h383.936a100.352 100.352 0 0 0 85.056 81.088v300.288a100.608 100.608 0 0 0-84.736 78.784H320a100.48 100.48 0 0 0-90.88-79.296z" fill="#070707" p-id="17726"></path></svg>