<?xml version="1.0" standalone="no"?><!DOCTYPE svg PUBLIC "-//W3C//DTD SVG 1.1//EN" "http://www.w3.org/Graphics/SVG/1.1/DTD/svg11.dtd"><svg t="1694152567074" class="icon" viewBox="0 0 1024 1024" version="1.1" xmlns="http://www.w3.org/2000/svg" p-id="6097" xmlns:xlink="http://www.w3.org/1999/xlink" width="32" height="32"><path d="M198.4 768l-32-51.2L0 960l294.4-19.2-32-57.6 268.8-153.6-64-115.2z" fill="#4B4BD1" p-id="6098"></path><path d="M492.8 729.6l268.8 153.6-32 57.6 294.4 19.2-166.4-243.2-32 51.2-268.8-153.6z" fill="#E32B2B" p-id="6099"></path><path d="M512 0l128 262.4h-57.6V704H441.6V262.4H384z" fill="#52D052" p-id="6100"></path><path d="M889.6 569.6l-64-121.6h57.6l25.6 51.2 19.2 38.4 19.2-38.4 19.2-51.2h51.2l-64 128 70.4 128h-57.6l-25.6-57.6c-6.4-12.8-12.8-25.6-19.2-44.8-6.4 12.8-12.8 25.6-19.2 44.8l-32 57.6h-51.2l70.4-134.4zM742.4 160L665.6 0h51.2l25.6 64 19.2 57.6c6.4-19.2 12.8-38.4 25.6-57.6l25.6-64h51.2l-76.8 160V256h-51.2V160zM0 672l115.2-179.2H12.8V448h166.4v32L64 659.2h115.2v44.8H0z" fill="#1C1B1B" p-id="6101"></path></svg>