<?xml version="1.0" standalone="no"?><!DOCTYPE svg PUBLIC "-//W3C//DTD SVG 1.1//EN" "http://www.w3.org/Graphics/SVG/1.1/DTD/svg11.dtd"><svg t="1697114016484" class="icon" viewBox="0 0 1024 1024" version="1.1" xmlns="http://www.w3.org/2000/svg" p-id="14451" xmlns:xlink="http://www.w3.org/1999/xlink" width="200" height="200"><path d="M927.7 438.2c-13.8 0-25 11.2-25 25V790c0 68.9-56.1 125-125 125H246.3c-68.9 0-125-56.1-125-125V233.2c0-68.9 56.1-125 125-125h326.8c13.8 0 25-11.2 25-25s-11.2-25-25-25H246.3c-96.5 0-175 78.5-175 175V790c0 96.5 78.5 175 175 175h531.4c96.5 0 175-78.5 175-175V463.2c0-13.8-11.1-25-25-25z" fill="#424242" p-id="14452"></path><path d="M652.2 606.2c0.2 13.8 11.4 24.8 25.3 24.7 13.8-0.2 24.9-11.5 24.7-25.3l-3.1-269.9v-0.4-0.7-0.5c0-0.2 0-0.5-0.1-0.7 0-0.2 0-0.3-0.1-0.5 0-0.2-0.1-0.5-0.1-0.7 0-0.1 0-0.3-0.1-0.4 0-0.3-0.1-0.5-0.2-0.8 0-0.1 0-0.2-0.1-0.3-0.1-0.3-0.1-0.6-0.2-0.9 0-0.1 0-0.2-0.1-0.2-0.1-0.3-0.2-0.6-0.3-1 0-0.1 0-0.1-0.1-0.2-0.1-0.3-0.2-0.7-0.4-1v-0.1c-0.1-0.4-0.3-0.7-0.4-1.1v-0.1c-0.2-0.4-0.3-0.7-0.5-1.1v-0.1c-0.2-0.3-0.3-0.7-0.5-1v-0.1c-0.2-0.3-0.4-0.6-0.6-1l-0.1-0.1-0.6-0.9c-0.1-0.1-0.1-0.2-0.2-0.2-0.2-0.2-0.3-0.5-0.5-0.7l-0.3-0.3c-0.2-0.2-0.3-0.4-0.5-0.6-0.1-0.1-0.2-0.3-0.4-0.4-0.1-0.2-0.3-0.3-0.4-0.5-0.1-0.2-0.3-0.3-0.4-0.5l-0.3-0.3c-0.1-0.1-0.1-0.1-0.2-0.1s-0.1-0.1-0.1-0.2l-0.3-0.3c-0.2-0.1-0.3-0.3-0.5-0.4-0.1-0.1-0.3-0.2-0.4-0.4-0.2-0.2-0.4-0.3-0.6-0.5-0.1-0.1-0.2-0.2-0.3-0.2-0.2-0.2-0.5-0.4-0.7-0.5l-0.1-0.1c-3.9-2.8-8.5-4.4-13.1-4.6H674h-0.6l-271 5.2c-13.8 0.3-24.8 11.7-24.5 25.5 0.3 13.6 11.4 24.5 25 24.5h0.5l208.8-4L302 671.6c-9.8 9.7-9.8 25.6-0.1 35.4 9.7 9.8 25.6 9.8 35.4 0.1l312.5-311.4 2.4 210.5z" fill="#424242" p-id="14453"></path></svg>