<?xml version="1.0" standalone="no"?><!DOCTYPE svg PUBLIC "-//W3C//DTD SVG 1.1//EN" "http://www.w3.org/Graphics/SVG/1.1/DTD/svg11.dtd"><svg t="1696931947316" class="icon" viewBox="0 0 1024 1024" version="1.1" xmlns="http://www.w3.org/2000/svg" p-id="9675" xmlns:xlink="http://www.w3.org/1999/xlink" width="200" height="200"><path d="M213.12 999.04L37.76 794.88l453.76-361.6-278.4 565.76z" fill="#939393" p-id="9676"></path><path d="M506.88 432.64h9.6l281.6 571.52h-576z" fill="#949494" p-id="9677"></path><path d="M531.84 433.28l454.4 361.6-176 204.16-278.4-565.76z" fill="#686767" p-id="9678"></path><path d="M1003.52 793.6L536.96 422.4a15.36 15.36 0 0 0 0-8.96c0-10.88-12.8-19.84-28.16-19.84s-28.16 8.96-28.16 19.84a15.36 15.36 0 0 0 3.2 8.96L20.48 793.6H25.6l186.24 216.96h604.16l186.24-216.96zM213.12 999.04L37.76 794.88l454.4-361.6z m293.76-566.4h9.6l281.6 571.52h-576z m24.96 0l454.4 361.6-175.36 204.16z" fill="#FFFFFF" p-id="9679"></path><path d="M823.04 1024H200.96l-192-225.28-8.96-4.48 469.76-373.76a33.28 33.28 0 0 1 0-7.04A32 32 0 0 1 492.8 384a75.52 75.52 0 0 1 37.76 0c14.72 5.12 24.96 15.36 24.96 26.88a33.28 33.28 0 0 1 0 7.04L1024 794.24l-10.24 7.68z m-576-29.44h531.2L512 455.68z m324.48-512l243.84 494.08 152.96-178.56z m-512 315.52l152.96 178.56L452.48 480z m448-389.12a14.08 14.08 0 0 0 0 5.12H512z m17.92 0h3.84a6.4 6.4 0 0 0 0-5.12z" fill="#FFFFFF" p-id="9680"></path><path d="M448 64h128v431.36H448z" fill="#00FF00" p-id="9681"></path><path d="M256 256l256-256 256 256" fill="#00FF00" p-id="9682"></path></svg>